#define AFlogo_1_width 39
#define AFlogo_1_height 31
static const char AFlogo_1_bits[] = {
   0x00, 0x00, 0x00, 0x00, 0x00, 0x00, 0x00, 0x00, 0x00, 0x00, 0x00, 0x00,
   0x00, 0x00, 0x00, 0x00, 0x00, 0x00, 0x00, 0x00, 0x00, 0x00, 0x00, 0x00,
   0x00, 0x00, 0x00, 0x00, 0x00, 0x00, 0x00, 0x00, 0x00, 0x00, 0x00, 0x00,
   0x00, 0x00, 0x00, 0x00, 0x00, 0xc0, 0x07, 0x00, 0x00, 0x00, 0xc0, 0x07,
   0x00, 0x00, 0x00, 0xe0, 0x07, 0x00, 0x00, 0x00, 0xe0, 0x07, 0x00, 0x00,
   0x00, 0xf0, 0x07, 0x00, 0x00, 0x00, 0xf0, 0x07, 0x00, 0x00, 0x00, 0x38,
   0x07, 0x00, 0x00, 0x00, 0x38, 0x07, 0x00, 0x00, 0x00, 0x1c, 0x07, 0x00,
   0x00, 0x00, 0x1c, 0x07, 0x00, 0x00, 0x00, 0x0e, 0x07, 0x00, 0x00, 0x00,
   0x0e, 0x07, 0x00, 0x00, 0x00, 0x07, 0x07, 0x00, 0x00, 0x00, 0x07, 0x07,
   0x00, 0x00, 0x80, 0x03, 0x07, 0x00, 0x00, 0x80, 0x03, 0x07, 0x00, 0x00,
   0x00, 0x00, 0x00, 0x00, 0x00, 0x00, 0x00, 0x00, 0x00, 0x00, 0x00, 0x00,
   0x00, 0x00, 0x00, 0x00, 0x00, 0x00, 0x00, 0x00, 0x00, 0x00, 0x00, 0x00,
   0x00, 0x00, 0x00, 0x00, 0x00, 0x00, 0x00, 0x00, 0x00, 0x00, 0x00 };
