#define AFlogo_width 60
#define AFlogo_height 49
static unsigned char AFlogo_bits[] = {
   0x00, 0x10, 0x00, 0x00, 0x00, 0x00, 0x00, 0x00, 0x00, 0x38, 0x00, 0x00,
   0x00, 0x00, 0x00, 0x00, 0x00, 0x7c, 0x00, 0x00, 0x00, 0x00, 0x00, 0x00,
   0x00, 0x7e, 0x00, 0x00, 0x00, 0x00, 0x00, 0x00, 0x00, 0x7f, 0x00, 0x00,
   0x00, 0x00, 0x00, 0x00, 0x80, 0x3f, 0x00, 0x00, 0x00, 0x00, 0x00, 0x00,
   0xc0, 0x1f, 0x00, 0x00, 0x00, 0x00, 0x00, 0x00, 0xe0, 0x0f, 0x00, 0x00,
   0x00, 0x00, 0x00, 0x00, 0xf0, 0x07, 0x00, 0x00, 0x00, 0x00, 0x00, 0x00,
   0xf0, 0x03, 0x00, 0x00, 0x00, 0x00, 0x00, 0x00, 0xf8, 0x01, 0x00, 0x00,
   0x00, 0x00, 0x00, 0x00, 0xf8, 0x00, 0x80, 0x1f, 0xfe, 0xff, 0x07, 0x00,
   0x7c, 0x00, 0xc0, 0x1f, 0xfe, 0xff, 0x03, 0x00, 0x7c, 0x00, 0xc0, 0x1f,
   0xfe, 0xff, 0x03, 0x00, 0x3e, 0x0c, 0xe0, 0x1f, 0xfe, 0xff, 0x01, 0x00,
   0x3e, 0x1e, 0xe0, 0x1f, 0x1e, 0x00, 0x00, 0x00, 0x1f, 0x1e, 0xf0, 0x1f,
   0x1e, 0x00, 0x00, 0x00, 0x1f, 0x1c, 0xf8, 0x1f, 0x1e, 0x00, 0x00, 0x00,
   0x0f, 0x00, 0xf8, 0x1f, 0x1e, 0x00, 0x00, 0x00, 0x0f, 0x00, 0xfc, 0x1f,
   0x1e, 0x00, 0x00, 0x00, 0x0f, 0x00, 0xfc, 0x1f, 0x1e, 0x00, 0x80, 0x07,
   0x0f, 0x00, 0x3e, 0x1e, 0xfe, 0x1f, 0x80, 0x07, 0x0f, 0x00, 0x1e, 0x1e,
   0xfe, 0x1f, 0x80, 0x07, 0x0f, 0x00, 0x1f, 0x1e, 0xfe, 0x0f, 0x80, 0x07,
   0x0f, 0x00, 0x0f, 0x1e, 0xfe, 0x0f, 0x80, 0x07, 0x0f, 0x80, 0x0f, 0x1e,
   0x1e, 0x00, 0x80, 0x07, 0x0f, 0x80, 0x07, 0x1e, 0x1e, 0x00, 0x80, 0x07,
   0x0f, 0xc0, 0x07, 0x1e, 0x1e, 0x00, 0x80, 0x07, 0x0f, 0xc0, 0x03, 0x1e,
   0x1e, 0x00, 0x80, 0x07, 0x00, 0xe0, 0x03, 0x1e, 0x1e, 0x00, 0x80, 0x07,
   0x00, 0xe0, 0x01, 0x1e, 0x1e, 0xc0, 0x81, 0x07, 0x00, 0xf0, 0x01, 0x1e,
   0x1e, 0xc0, 0xc3, 0x07, 0x00, 0xf0, 0x00, 0x1e, 0x1e, 0xc0, 0xc3, 0x07,
   0x00, 0xf8, 0x00, 0x1e, 0x1e, 0x80, 0xc1, 0x03, 0x00, 0x78, 0x00, 0x1e,
   0x1e, 0x00, 0xe0, 0x03, 0x00, 0x7c, 0x00, 0x1e, 0x1e, 0x00, 0xe0, 0x03,
   0x00, 0x3c, 0x00, 0x1e, 0x1e, 0x00, 0xf0, 0x01, 0x00, 0x3c, 0x00, 0x1e,
   0x1e, 0x00, 0xf0, 0x01, 0x00, 0x00, 0x00, 0x00, 0x00, 0x00, 0xf8, 0x00,
   0x00, 0x00, 0x00, 0x00, 0x00, 0x00, 0xfc, 0x00, 0x00, 0x00, 0x00, 0x00,
   0x00, 0x00, 0x7e, 0x00, 0x00, 0x00, 0x00, 0x00, 0x00, 0x00, 0x3f, 0x00,
   0x00, 0x00, 0x00, 0x00, 0x00, 0x80, 0x3f, 0x00, 0x00, 0x00, 0x00, 0x00,
   0x00, 0xc0, 0x1f, 0x00, 0x00, 0x00, 0x00, 0x00, 0x00, 0xe0, 0x0f, 0x00,
   0x00, 0x00, 0x00, 0x00, 0x00, 0xe0, 0x07, 0x00, 0x00, 0x00, 0x00, 0x00,
   0x00, 0xe0, 0x03, 0x00, 0x00, 0x00, 0x00, 0x00, 0x00, 0xe0, 0x01, 0x00,
   0x00, 0x00, 0x00, 0x00, 0x00, 0xc0, 0x00, 0x00 };
