#define AFlogo_3_width 39
#define AFlogo_3_height 31
static const char AFlogo_3_bits[] = {
   0x00, 0x00, 0x00, 0x00, 0x00, 0x00, 0x00, 0x00, 0x00, 0x00, 0x00, 0x00,
   0x00, 0x00, 0x00, 0x00, 0x00, 0x00, 0x00, 0x00, 0x00, 0x00, 0x00, 0x00,
   0x00, 0x00, 0x00, 0x00, 0x00, 0x00, 0x00, 0x00, 0x00, 0x00, 0x00, 0x00,
   0x00, 0x00, 0x00, 0x00, 0x00, 0xc0, 0xe7, 0x7f, 0x00, 0x00, 0xc0, 0xe7,
   0x7f, 0x00, 0x80, 0xe1, 0xe7, 0x00, 0x00, 0x80, 0xe1, 0xe7, 0x00, 0x00,
   0x00, 0xf0, 0xe7, 0x00, 0x00, 0x00, 0xf0, 0xe7, 0x00, 0x00, 0x00, 0x38,
   0xe7, 0x0f, 0x00, 0x00, 0x38, 0xe7, 0x0f, 0x00, 0x00, 0x1c, 0xe7, 0x00,
   0x00, 0x00, 0x1c, 0xe7, 0x00, 0x00, 0x00, 0x0e, 0xe7, 0x00, 0x00, 0x00,
   0x0e, 0xe7, 0x60, 0x00, 0x00, 0x07, 0xe7, 0x60, 0x00, 0x00, 0x07, 0xe7,
   0x00, 0x00, 0x80, 0x03, 0xe7, 0x00, 0x00, 0x80, 0x03, 0xe7, 0x00, 0x00,
   0x00, 0x00, 0x00, 0x00, 0x00, 0x00, 0x00, 0x00, 0x00, 0x00, 0x00, 0x00,
   0x00, 0x00, 0x00, 0x00, 0x00, 0x00, 0x00, 0x00, 0x00, 0x00, 0x00, 0x00,
   0x00, 0x00, 0x00, 0x00, 0x00, 0x00, 0x00, 0x00, 0x00, 0x00, 0x00 };
