#define AFlogo_2_width 39
#define AFlogo_2_height 31
static const char AFlogo_2_bits[] = {
   0x00, 0x00, 0x00, 0x00, 0x00, 0x00, 0x00, 0x00, 0x00, 0x00, 0x00, 0x00,
   0x00, 0x00, 0x00, 0x00, 0x00, 0x00, 0x00, 0x00, 0x00, 0x00, 0x00, 0x00,
   0x00, 0x00, 0x00, 0x00, 0x00, 0x00, 0x00, 0x00, 0x00, 0x00, 0x00, 0x00,
   0x00, 0x00, 0x00, 0x00, 0x00, 0xc0, 0xe7, 0x7f, 0x00, 0x00, 0xc0, 0xe7,
   0x7f, 0x00, 0x00, 0xe0, 0xe7, 0x00, 0x00, 0x00, 0xe0, 0xe7, 0x00, 0x00,
   0x00, 0xf0, 0xe7, 0x00, 0x00, 0x00, 0xf0, 0xe7, 0x00, 0x00, 0x00, 0x38,
   0xe7, 0x0f, 0x00, 0x00, 0x38, 0xe7, 0x0f, 0x00, 0x00, 0x1c, 0xe7, 0x00,
   0x00, 0x00, 0x1c, 0xe7, 0x00, 0x00, 0x00, 0x0e, 0xe7, 0x00, 0x00, 0x00,
   0x0e, 0xe7, 0x00, 0x00, 0x00, 0x07, 0xe7, 0x00, 0x00, 0x00, 0x07, 0xe7,
   0x00, 0x00, 0x80, 0x03, 0xe7, 0x00, 0x00, 0x80, 0x03, 0xe7, 0x00, 0x00,
   0x00, 0x00, 0x00, 0x00, 0x00, 0x00, 0x00, 0x00, 0x00, 0x00, 0x00, 0x00,
   0x00, 0x00, 0x00, 0x00, 0x00, 0x00, 0x00, 0x00, 0x00, 0x00, 0x00, 0x00,
   0x00, 0x00, 0x00, 0x00, 0x00, 0x00, 0x00, 0x00, 0x00, 0x00, 0x00 };
