#define Battery_width 16
#define Battery_height 8
static unsigned char Battery_bits[] = {
   0xfe, 0x3f, 0x01, 0x40, 0x01, 0x40, 0x01, 0xc0, 0x01, 0xc0, 0x01, 0x40,
   0x01, 0x40, 0xfe, 0x3f };
