#define Home_width 9
#define Home_height 8
static unsigned char Home_bits[] = {
   0x14, 0x00, 0x7c, 0x00, 0xc6, 0x00, 0x83, 0x01, 0x82, 0x00, 0xba, 0x00,
   0xaa, 0x00, 0xee, 0x00 };
