#define Power_width 5
#define Power_height 8
static unsigned char Power_bits[] = {
   0x1c, 0x0e, 0x07, 0x1f, 0x1c, 0x0e, 0x06, 0x03 };
