#define Small_Wifi_width 8
#define Small_Wifi_height 8
static unsigned char Small_Wifi_bits[] = {
   0x00, 0x7e, 0xc3, 0x81, 0x3c, 0x42, 0x18, 0x18 };
