#define Tracker_width 32
#define Tracker_height 32
static unsigned char Tracker_bits[] = {
   0x00, 0x80, 0x03, 0x00, 0x00, 0x00, 0x01, 0x00, 0x00, 0x00, 0x01, 0x00,
   0x00, 0x00, 0x01, 0x00, 0x00, 0x80, 0x03, 0x00, 0x00, 0xc0, 0x06, 0x00,
   0x00, 0xa0, 0x0a, 0x00, 0x00, 0x90, 0x12, 0x00, 0x00, 0x4c, 0x64, 0x00,
   0xc0, 0xff, 0xff, 0x07, 0x40, 0x00, 0x00, 0x04, 0x40, 0x00, 0x00, 0x04,
   0x80, 0x00, 0x00, 0x02, 0x00, 0x01, 0x00, 0x01, 0x00, 0x02, 0x80, 0x00,
   0x00, 0x8c, 0x63, 0x00, 0x00, 0xf0, 0x1f, 0x00, 0x00, 0x40, 0x05, 0x00,
   0x00, 0x40, 0x05, 0x00, 0x00, 0x20, 0x09, 0x00, 0x00, 0x20, 0x09, 0x00,
   0x00, 0x10, 0x11, 0x00, 0x00, 0x10, 0x11, 0x00, 0x00, 0x08, 0x21, 0x00,
   0x00, 0xfe, 0xff, 0x00, 0x00, 0x02, 0x80, 0x00, 0x00, 0x02, 0x80, 0x00,
   0x00, 0x0e, 0xe0, 0x00, 0x00, 0x08, 0x20, 0x00, 0x00, 0x08, 0x20, 0x00,
   0xe0, 0xff, 0xff, 0x0f, 0x00, 0x00, 0x00, 0x00 };
