#define AFlogo_4_width 37
#define AFlogo_4_height 34
static const char AFlogo_4_bits[] = {
   0x00, 0x00, 0x00, 0x00, 0x00, 0x00, 0x00, 0x00, 0x00, 0x00, 0x00, 0x00,
   0x00, 0x00, 0x00, 0x00, 0x00, 0x00, 0x00, 0x00, 0x00, 0x03, 0x00, 0x00,
   0x00, 0x80, 0x07, 0x00, 0x00, 0x00, 0xc0, 0x03, 0x00, 0x00, 0x00, 0xe0,
   0x01, 0x00, 0x00, 0x00, 0xf0, 0x00, 0x00, 0x00, 0x00, 0x70, 0x00, 0x00,
   0x00, 0x00, 0x38, 0xc0, 0xf3, 0x3f, 0x00, 0x38, 0xe0, 0xf3, 0x1f, 0x00,
   0x98, 0xe3, 0x73, 0x00, 0x00, 0x9c, 0xf3, 0x73, 0x00, 0x00, 0x1c, 0xf0,
   0x73, 0x00, 0x04, 0x1c, 0x38, 0xf3, 0x07, 0x07, 0x1c, 0x18, 0xf3, 0x07,
   0x07, 0x1c, 0x1c, 0xf3, 0x03, 0x07, 0x1c, 0x0c, 0x73, 0x00, 0x07, 0x04,
   0x0e, 0x73, 0x00, 0x07, 0x00, 0x06, 0x73, 0x38, 0x07, 0x00, 0x07, 0x73,
   0x38, 0x03, 0x00, 0x03, 0x73, 0x80, 0x03, 0x00, 0x03, 0x73, 0x80, 0x03,
   0x00, 0x00, 0x00, 0xc0, 0x01, 0x00, 0x00, 0x00, 0xe0, 0x01, 0x00, 0x00,
   0x00, 0xe0, 0x00, 0x00, 0x00, 0x00, 0x70, 0x00, 0x00, 0x00, 0x00, 0x3c,
   0x00, 0x00, 0x00, 0x00, 0x18, 0x00, 0x00, 0x00, 0x00, 0x00, 0x00, 0x00,
   0x00, 0x00, 0x00, 0x00, 0x00, 0x00, 0x00, 0x00, 0x00, 0x00, 0x00, 0x00,
   0x00, 0x00 };
