#define AFlogo_width 37
#define AFlogo_height 34
static const char AFlogo_bits[] = {
   0x00, 0x0e, 0x00, 0x00, 0x00, 0x00, 0x11, 0x00, 0x00, 0x00, 0x80, 0x20,
   0x00, 0x00, 0x00, 0x40, 0x40, 0x00, 0x00, 0x00, 0x20, 0x83, 0x00, 0x00,
   0x00, 0x90, 0x07, 0x01, 0x00, 0x00, 0xc8, 0x03, 0x02, 0x00, 0x00, 0xe4,
   0x01, 0xfc, 0xff, 0x01, 0xf4, 0x00, 0x00, 0x00, 0x02, 0x72, 0x00, 0x00,
   0x00, 0x04, 0x3a, 0xc0, 0xf3, 0x3f, 0x04, 0x39, 0xe0, 0xf3, 0x1f, 0x08,
   0x99, 0xe3, 0x73, 0x00, 0x08, 0x9d, 0xf3, 0x73, 0x00, 0x10, 0x1d, 0xf0,
   0x73, 0x00, 0x14, 0x1d, 0x38, 0xf3, 0x07, 0x17, 0x1d, 0x18, 0xf3, 0x07,
   0x17, 0x1d, 0x1c, 0xf3, 0x03, 0x17, 0x1d, 0x0c, 0x73, 0x00, 0x17, 0x05,
   0x0e, 0x73, 0x00, 0x17, 0x01, 0x06, 0x73, 0x38, 0x17, 0x02, 0x07, 0x73,
   0x38, 0x13, 0x02, 0x03, 0x73, 0x80, 0x13, 0x04, 0x03, 0x73, 0x80, 0x0b,
   0x04, 0x00, 0x00, 0xc0, 0x09, 0x08, 0x00, 0x00, 0xe0, 0x05, 0xf0, 0xff,
   0x07, 0xe0, 0x04, 0x00, 0x00, 0x08, 0x70, 0x02, 0x00, 0x00, 0x10, 0x3c,
   0x01, 0x00, 0x00, 0x20, 0x98, 0x00, 0x00, 0x00, 0x40, 0x40, 0x00, 0x00,
   0x00, 0x80, 0x20, 0x00, 0x00, 0x00, 0x00, 0x11, 0x00, 0x00, 0x00, 0x00,
   0x0e, 0x00 };
