#define AFlogo_2_width 37
#define AFlogo_2_height 34
static const char AFlogo_2_bits[] = {
   0x00, 0x00, 0x00, 0x00, 0x00, 0x00, 0x00, 0x00, 0x00, 0x00, 0x00, 0x00,
   0x00, 0x00, 0x00, 0x00, 0x00, 0x00, 0x00, 0x00, 0x00, 0x00, 0x00, 0x00,
   0x00, 0x00, 0x00, 0x00, 0x00, 0x00, 0x00, 0x00, 0x00, 0x00, 0x00, 0x00,
   0x00, 0x00, 0x00, 0x00, 0x00, 0x00, 0x00, 0x00, 0x00, 0x00, 0x00, 0x00,
   0x00, 0x00, 0x00, 0xc0, 0xf3, 0x3f, 0x00, 0x00, 0xe0, 0xf3, 0x1f, 0x00,
   0x00, 0xe0, 0x73, 0x00, 0x00, 0x00, 0xf0, 0x73, 0x00, 0x00, 0x00, 0xf0,
   0x73, 0x00, 0x00, 0x00, 0x38, 0xf3, 0x07, 0x00, 0x00, 0x18, 0xf3, 0x07,
   0x00, 0x00, 0x1c, 0xf3, 0x03, 0x00, 0x00, 0x0c, 0x73, 0x00, 0x00, 0x00,
   0x0e, 0x73, 0x00, 0x00, 0x00, 0x06, 0x73, 0x00, 0x00, 0x00, 0x07, 0x73,
   0x00, 0x00, 0x00, 0x03, 0x73, 0x00, 0x00, 0x00, 0x03, 0x73, 0x00, 0x00,
   0x00, 0x00, 0x00, 0x00, 0x00, 0x00, 0x00, 0x00, 0x00, 0x00, 0x00, 0x00,
   0x00, 0x00, 0x00, 0x00, 0x00, 0x00, 0x00, 0x00, 0x00, 0x00, 0x00, 0x00,
   0x00, 0x00, 0x00, 0x00, 0x00, 0x00, 0x00, 0x00, 0x00, 0x00, 0x00, 0x00,
   0x00, 0x00, 0x00, 0x00, 0x00, 0x00, 0x00, 0x00, 0x00, 0x00, 0x00, 0x00,
   0x00, 0x00 };
