#define Phone_width 24
#define Phone_height 24
static unsigned char Phone_bits[] = {
   0x00, 0x00, 0x00, 0xc0, 0xff, 0x07, 0x40, 0x00, 0x04, 0x40, 0x00, 0x04,
   0x40, 0xfc, 0x07, 0x40, 0x00, 0x04, 0x40, 0x00, 0x04, 0x40, 0x00, 0x04,
   0x40, 0x00, 0x04, 0x40, 0x00, 0x04, 0x40, 0x00, 0x04, 0x40, 0x00, 0x04,
   0x40, 0x00, 0x04, 0x40, 0x00, 0x04, 0x40, 0x00, 0x04, 0x40, 0x00, 0x04,
   0x40, 0x00, 0x04, 0x40, 0x00, 0x04, 0xc0, 0x7f, 0x04, 0x40, 0x00, 0x04,
   0x40, 0x10, 0x04, 0x40, 0x10, 0x04, 0xc0, 0xff, 0x07, 0x00, 0x00, 0x00 };
