#define Tracker_width 24
#define Tracker_height 24
static unsigned char Tracker_bits[] = {
   0x00, 0x38, 0x00, 0x00, 0x10, 0x00, 0x00, 0x10, 0x00, 0x00, 0x38, 0x00,
   0x00, 0x6c, 0x00, 0x00, 0xaa, 0x00, 0x80, 0x6d, 0x03, 0xe0, 0xff, 0x0f,
   0x20, 0x00, 0x08, 0x60, 0x00, 0x0c, 0xc0, 0x00, 0x06, 0x80, 0xff, 0x03,
   0x00, 0x7c, 0x00, 0x00, 0x7c, 0x00, 0x00, 0x54, 0x00, 0x00, 0xd6, 0x00,
   0x00, 0x92, 0x00, 0x00, 0x93, 0x01, 0x80, 0xff, 0x03, 0x80, 0x00, 0x02,
   0x80, 0x01, 0x03, 0x00, 0x01, 0x01, 0xf0, 0xff, 0x1f, 0x00, 0x00, 0x00 };
